<?xml version="1.0" encoding="utf-8"?>
<!-- Generator: Adobe Illustrator 25.3.1, SVG Export Plug-In . SVG Version: 6.00 Build 0)  -->
<svg version="1.1"
	 id="Layer_1" xmlns:cc="http://creativecommons.org/ns#" xmlns:dc="http://purl.org/dc/elements/1.1/" xmlns:inkscape="http://www.inkscape.org/namespaces/inkscape" xmlns:rdf="http://www.w3.org/1999/02/22-rdf-syntax-ns#" xmlns:sodipodi="http://sodipodi.sourceforge.net/DTD/sodipodi-0.dtd" xmlns:svg="http://www.w3.org/2000/svg"
	 xmlns="http://www.w3.org/2000/svg" xmlns:xlink="http://www.w3.org/1999/xlink" x="0px" y="0px" viewBox="0 0 16.9 21.2"
	 style="enable-background:new 0 0 16.9 21.2;" xml:space="preserve">
<g>
	<path d="M3.9,3.2c-0.2,0.1-0.2,0.3,0,0.5l2.5,1.8v0.9c0,0.2,0,0.4,0.1,0.5c-1,0-2.1,0-3,0c-1,0-1.9,0.8-1.9,1.9v1.1
		c0,0.5,0.2,1,0.6,1.3C1.2,11.2,0.5,12,0.5,13V14c0,1,0.8,1.9,1.9,1.9h0.8v0.3c0,0.2,0.2,0.3,0.4,0.2l0.9-0.7l0.9,0.7
		c0.2,0.1,0.4,0,0.4-0.2v-0.3h6.1c0.1,0,0.3-0.1,0.3-0.3v-1.1c0-0.1-0.1-0.3-0.3-0.3l0-1.6c0.1,0,0.3-0.1,0.3-0.3v-0.8H13
		c0.1,0,0.3-0.1,0.3-0.3v-1.1c0-0.1-0.1-0.3-0.3-0.3l0-1.6c0.1,0,0.3-0.1,0.3-0.3V7.3c0.3-0.2,0.5-0.5,0.5-0.9V5.4l0.5-0.4l0,2.1
		c-0.3,0.1-0.5,0.4-0.5,0.7v1.9c0,0.4,0.4,0.8,0.8,0.8s0.8-0.4,0.8-0.8V7.9c0-0.3-0.2-0.6-0.5-0.7l0-2.5l1.5-1
		c0.2-0.1,0.1-0.4,0-0.5l-6.1-2.6c0,0-0.1,0-0.1,0c0,0-0.1,0-0.1,0L3.9,3.2z M10.1,1.1l4.2,1.8l0,1.5l-0.5,0.4V4.5
		c0-0.1-0.1-0.3-0.1-0.3C13.5,4.1,13.5,4,13.4,4c-0.2-0.1-0.5-0.2-0.8-0.3c-0.7-0.2-1.5-0.2-2.5-0.2S8.2,3.5,7.6,3.7
		C7.2,3.8,7,3.8,6.8,4C6.7,4,6.6,4.1,6.5,4.2C6.4,4.2,6.3,4.4,6.3,4.5v0.3L4.5,3.5L10.1,1.1z M14.8,3.2l0.8,0.3L14.8,4V3.2z
		 M12.4,4.2c0.3,0.1,0.5,0.2,0.7,0.2c0.1,0,0.1,0.1,0.1,0.1l0,1.8c0,0.3-0.2,0.5-0.5,0.5H7.4c-0.3,0-0.5-0.2-0.5-0.5l0-1.8
		c0,0,0.1-0.1,0.1-0.1c0.1-0.1,0.4-0.2,0.7-0.2C8.3,4.1,9.1,4,10.1,4S11.8,4.1,12.4,4.2z M12.7,7.4v0.5c-3,0-6.5,0-9.3,0
		C3,7.9,2.6,8.3,2.6,8.7v1.1c0,0.4,0.4,0.8,0.8,0.8l0.8,0v0.5H3.4c-0.7,0-1.3-0.6-1.3-1.3V8.7c0-0.7,0.6-1.3,1.3-1.3
		C6.6,7.4,9.4,7.4,12.7,7.4z M14.6,7.7c0.1,0,0.3,0.1,0.3,0.3v1.9c0,0.2-0.1,0.3-0.3,0.3c-0.1,0-0.3-0.1-0.3-0.3V7.9
		C14.3,7.8,14.4,7.7,14.6,7.7z M12.4,8.5l0,1.6H6.9l0-0.5h4.2c0.4,0,0.4-0.5,0-0.5C8.7,9,6.3,9,4,9C3.6,9,3.6,9.5,4,9.5h0.3v0.5
		l-0.8,0c-0.1,0-0.3-0.1-0.3-0.3V8.7c0-0.2,0.1-0.3,0.3-0.3C6.6,8.5,9.2,8.5,12.4,8.5L12.4,8.5z M4.8,9.5h1.6l0,2.4l-0.6-0.5
		c-0.1-0.1-0.2-0.1-0.3,0l-0.6,0.5L4.8,9.5z M6.9,10.6h5.8v0.5H6.9L6.9,10.6z M4.2,11.6v0.5l-1.9,0c-0.4,0-0.8,0.4-0.8,0.8V14
		c0,0.4,0.4,0.8,0.8,0.8l0.8,0v0.5H2.4c-0.7,0-1.3-0.6-1.3-1.3V13c0-0.7,0.6-1.3,1.3-1.3L4.2,11.6z M6.9,11.6h4.8v0.5H6.9L6.9,11.6z
		 M5.6,12l0.9,0.7c0,0,0.1,0.1,0.2,0.1h4.8v1.6H5.8l0-0.5h4.2c0.4,0,0.4-0.5,0-0.5c-2.4,0-4.8,0-7.1,0c-0.4,0-0.4,0.5,0,0.5h0.3v0.5
		l-0.8,0c-0.1,0-0.3-0.1-0.3-0.3V13c0-0.2,0.1-0.3,0.3-0.3h2.1c0.1,0,0.1,0,0.2-0.1L5.6,12z M3.7,13.8h1.6l0,1.9l-0.6-0.5
		c-0.1-0.1-0.2-0.1-0.3,0l-0.6,0.5L3.7,13.8z M5.8,14.8h5.8v0.5H5.8L5.8,14.8z"/>
</g>
</svg>
