<?xml version="1.0" encoding="utf-8"?>
<!-- Generator: Adobe Illustrator 26.0.2, SVG Export Plug-In . SVG Version: 6.00 Build 0)  -->
<svg version="1.1" id="Layer_1" xmlns="http://www.w3.org/2000/svg" xmlns:xlink="http://www.w3.org/1999/xlink" x="0px" y="0px"
	 viewBox="0 0 700 700" style="enable-background:new 0 0 700 700;" xml:space="preserve">
<path d="M409.7,519.2H232.2c-1.6,0-3.1-0.7-4.1-1.8c-1-1.1-1.5-2.6-1.3-4.1l26.5-236.5c0.3-2.8,2.7-4.8,5.5-4.8h188.1
	c1.5,0,3,0.7,4,1.8c1,1.1,1.6,2.6,1.4,4.2l-7.6,67.5c3.6-1,7.3-1.8,11.1-2.4l3.5-31.1l3.8,30.2c2.7-0.2,5.4-0.4,8.2-0.4
	c0.9,0,1.7,0,2.6,0.1l-8.4-66.6c-0.5-3.9-2.4-7.5-5.4-10.1c-3-2.6-6.8-4-10.7-4h-19c4.1-18.3-0.3-37.5-12-52.2
	c-11.7-14.7-29.5-23.2-48.3-23.2c-18.8,0-36.5,8.5-48.3,23.2c-11.7,14.7-16.2,33.9-12,52.2h-18.5c-1.2-4.4-1.8-8.9-1.9-13.4
	c0-16.2,7.8-31.5,20.8-41.1c5.5-8,12.5-14.8,20.7-20c-14.6,2.3-27.8,9.7-37.4,20.9c-9.6,11.2-14.9,25.4-14.9,40.2
	c0,4.5,0.5,9,1.5,13.4h-21.5c-4,0-7.8,1.4-10.8,4.1c-3,2.6-4.9,6.3-5.3,10.3l-26.5,236.5v0c-0.5,4.5,0.9,9.1,4,12.5
	c3.1,3.5,7.5,5.4,12.1,5.4h194.2c-1.7-0.8-3.3-1.7-5-2.7C417.4,524.9,413.4,522.2,409.7,519.2L409.7,519.2z M370.1,196.7
	c13.5,0,26.5,5.4,36.1,15c9.6,9.6,15,22.6,15,36.1c0,4.5-0.6,9.1-1.9,13.4h-18.5c3.7-16.2,0.6-33.1-8.4-47
	c-6.1-4.1-13.2-6.4-20.5-6.7c12.4,9.6,19.7,24.5,19.7,40.2c0,4.5-0.6,9.1-1.9,13.4h-68.8c-1.2-4.4-1.9-8.9-1.9-13.4
	c0-13.5,5.4-26.5,15-36.1C343.6,202.1,356.6,196.8,370.1,196.7L370.1,196.7z"/>
<path d="M471.3,352.6c-23.5,0-46.1,9.3-62.7,26c-16.6,16.6-26,39.2-26,62.7c0,23.5,9.3,46.1,26,62.7c16.6,16.6,39.2,26,62.7,26
	c23.5,0,46.1-9.3,62.7-26c16.6-16.6,26-39.2,26-62.7c0-23.5-9.4-46.1-26-62.7C517.4,362,494.8,352.7,471.3,352.6L471.3,352.6z
	 M471.3,519.2c-20.7,0-40.5-8.2-55.1-22.8c-14.6-14.6-22.8-34.4-22.8-55.1c0-20.7,8.2-40.5,22.8-55.1c14.6-14.6,34.4-22.8,55.1-22.8
	c20.7,0,40.5,8.2,55.1,22.8c14.6,14.6,22.8,34.4,22.8,55.1c0,20.7-8.2,40.5-22.9,55.1C511.8,511,492,519.2,471.3,519.2L471.3,519.2z
	"/>
<path d="M530.4,435.9h-53.8v-53.8c0-3-2.4-5.4-5.4-5.4s-5.4,2.4-5.4,5.4v53.8h-53.8c-3,0-5.4,2.4-5.4,5.4s2.4,5.4,5.4,5.4h53.8v53.8
	c0,3,2.4,5.4,5.4,5.4s5.4-2.4,5.4-5.4v-53.8h53.8c3,0,5.4-2.4,5.4-5.4S533.4,435.9,530.4,435.9z"/>
</svg>
