<?xml version="1.0" encoding="utf-8"?>
<!-- Generator: Adobe Illustrator 26.0.2, SVG Export Plug-In . SVG Version: 6.00 Build 0)  -->
<svg version="1.1" id="Layer_1" xmlns="http://www.w3.org/2000/svg" xmlns:xlink="http://www.w3.org/1999/xlink" x="0px" y="0px"
	 viewBox="0 0 700 700" style="enable-background:new 0 0 700 700;" xml:space="preserve">
<g>
	<path d="M355.3,369.2V354H340v15.2H355.3z"/>
	<path d="M400.9,354h15.2v15.2h-15.2V354z"/>
	<path d="M279.2,354h15.2v15.2h-15.2V354z"/>
	<path d="M248.8,288.7v263.1h197.8V288.7l-56.4-56.4h-34.9v16.6c6.8,2.4,12.1,7.9,14.2,14.8c2.1,6.9,0.8,14.4-3.5,20.2
		c-4.3,5.8-11.1,9.2-18.3,9.2s-14-3.4-18.3-9.2c-4.3-5.8-5.6-13.3-3.5-20.2c2.1-6.9,7.4-12.4,14.2-14.8v-16.6h-34.9L248.8,288.7z
		 M385.7,346.4c0-2,0.8-4,2.2-5.4c1.4-1.4,3.4-2.2,5.4-2.2h30.4c2,0,4,0.8,5.4,2.2c1.4,1.4,2.2,3.4,2.2,5.4v30.4c0,2-0.8,4-2.2,5.4
		c-1.4,1.4-3.4,2.2-5.4,2.2h-30.4c-2,0-4-0.8-5.4-2.2s-2.2-3.4-2.2-5.4V346.4z M385.7,407.2c0-2,0.8-4,2.2-5.4
		c1.4-1.4,3.4-2.2,5.4-2.2h30.4c2,0,4,0.8,5.4,2.2c1.4,1.4,2.2,3.4,2.2,5.4v121.7c0,2-0.8,4-2.2,5.4c-1.4,1.4-3.4,2.2-5.4,2.2h-30.4
		c-2,0-4-0.8-5.4-2.2s-2.2-3.4-2.2-5.4V407.2z M309.6,528.9c0,2-0.8,4-2.2,5.4c-1.4,1.4-3.4,2.2-5.4,2.2h-30.4c-2,0-4-0.8-5.4-2.2
		s-2.2-3.4-2.2-5.4V407.2c0-2,0.8-4,2.2-5.4s3.4-2.2,5.4-2.2H302c2,0,4,0.8,5.4,2.2s2.2,3.4,2.2,5.4V528.9z M324.8,346.4
		c0-2,0.8-4,2.2-5.4s3.4-2.2,5.4-2.2h30.4c2,0,4,0.8,5.4,2.2s2.2,3.4,2.2,5.4v30.4c0,2-0.8,4-2.2,5.4s-3.4,2.2-5.4,2.2h-30.4
		c-2,0-4-0.8-5.4-2.2s-2.2-3.4-2.2-5.4V346.4z M324.8,407.2c0-2,0.8-4,2.2-5.4s3.4-2.2,5.4-2.2h30.4c2,0,4,0.8,5.4,2.2
		s2.2,3.4,2.2,5.4v121.7c0,2-0.8,4-2.2,5.4c-1.4,1.4-3.4,2.2-5.4,2.2h-30.4c-2,0-4-0.8-5.4-2.2s-2.2-3.4-2.2-5.4V407.2z
		 M309.6,346.4v30.4c0,2-0.8,4-2.2,5.4s-3.4,2.2-5.4,2.2h-30.4c-2,0-4-0.8-5.4-2.2s-2.2-3.4-2.2-5.4v-30.4c0-2,0.8-4,2.2-5.4
		s3.4-2.2,5.4-2.2H302c2,0,4,0.8,5.4,2.2S309.6,344.4,309.6,346.4z"/>
	<path d="M400.9,414.8h15.2v106.5h-15.2V414.8z"/>
	<path d="M355.3,521.3V414.8H340v106.5H355.3z"/>
	<path d="M355.3,270.3c0,4.2-3.4,7.6-7.6,7.6c-4.2,0-7.6-3.4-7.6-7.6c0-4.2,3.4-7.6,7.6-7.6C351.9,262.7,355.3,266.1,355.3,270.3"/>
	<path d="M279.2,414.8h15.2v106.5h-15.2V414.8z"/>
	<path d="M355.3,194.3c0-4.2-3.4-7.6-7.6-7.6c-4.2,0-7.6,3.4-7.6,7.6v22.8h15.2V194.3z"/>
</g>
</svg>
